# xmcd
#
# Track frame offsets: 
#        150
#        15165
#        30803
#        45734
#        64051
#        81232
#        101907
#        115265
#        135629
#        150511
#        167453
#        179683
#
# Disc length: 2644 seconds
#
# Revision: 1
# Processed by: cddbd v1.5.2PL0 Copyright (c) Steve Scherf et al.
# Submitted via: ExactAudioCopy v0.99pb3
#
DISCID=8c0a520c
DTITLE=Pirates of the Mississippi - Heaven And a Dixie night
DYEAR=2007
DGENRE=Country
TTITLE0=Drinkin' money
TTITLE1=Kickin' up dust
TTITLE2=Heaven and a dixie night
TTITLE3=Fish bait
TTITLE4=Is that country or what?
TTITLE5=When love is meant to be
TTITLE6=A nickel's worth of your love
TTITLE7=Rollin'
TTITLE8=I wouldn't change a thing
TTITLE9=Me
TTITLE10=Gravy
TTITLE11=A snowman in Birmingham
EXTD=
EXTT0=
EXTT1=
EXTT2=
EXTT3=
EXTT4=
EXTT5=
EXTT6=
EXTT7=
EXTT8=
EXTT9=
EXTT10=
EXTT11=
PLAYORDER=
